<svg xmlns="http://www.w3.org/2000/svg" viewBox="0 0 100 100" role="img" aria-label="Mint and Lemon">
  <rect width="100" height="100" rx="23" fill="#0e2b22"/>
  <g transform="rotate(-24 50 54)">
    <!-- lemon body with soft points -->
    <path d="M19 54 C19 42 33 34 50 34 C67 34 81 42 81 54 C81 66 67 74 50 74 C33 74 19 66 19 54 Z" fill="#ffdf3a"/>
    <!-- pointed tips -->
    <path d="M16 54 L24 49.5 L24 58.5 Z" fill="#ffdf3a"/>
    <path d="M84 54 L76 49.5 L76 58.5 Z" fill="#ffdf3a"/>
    <!-- highlight -->
    <ellipse cx="39" cy="47" rx="9.5" ry="5" fill="#fff7bf" opacity="0.8"/>
  </g>
  <!-- leaf -->
  <path d="M57 27 C66 20 77 22 82 29 C73 36 62 34 57 27 Z" fill="#46c28d"/>
  <path d="M59 28 C66 28 74 30 80 32" stroke="#0e2b22" stroke-width="1.5" fill="none" opacity="0.35" stroke-linecap="round"/>
</svg>
